<svg xmlns="http://www.w3.org/2000/svg" viewBox="0 0 512 512" role="img" aria-label="Call for me">
  <defs>
    <linearGradient id="bg" x1="96" y1="64" x2="430" y2="448" gradientUnits="userSpaceOnUse">
      <stop stop-color="#8f70bc"/>
      <stop offset=".55" stop-color="#4f8dd9"/>
      <stop offset="1" stop-color="#57c98a"/>
    </linearGradient>
    <filter id="shadow" x="-20%" y="-20%" width="140%" height="140%">
      <feDropShadow dx="0" dy="18" stdDeviation="22" flood-color="#050508" flood-opacity=".42"/>
    </filter>
  </defs>
  <rect width="512" height="512" rx="108" fill="#0d0d12"/>
  <rect x="38" y="38" width="436" height="436" rx="92" fill="url(#bg)"/>
  <circle cx="256" cy="256" r="168" fill="#111117" opacity=".2"/>
  <g filter="url(#shadow)">
    <path d="M176 138c-18 8-36 31-43 53-10 31-1 72 25 112 27 42 68 78 112 99 41 20 79 24 106 10 20-10 39-34 43-54 2-9-2-18-10-23l-65-39c-10-6-22-4-29 5l-22 27c-7 9-19 12-29 7-19-9-39-25-57-43-18-19-32-39-41-58-5-10-2-22 7-29l28-22c9-7 11-20 5-30l-37-62c-6-10-19-14-30-9l37 58Z" fill="#fff"/>
    <path d="M314 128c41 11 73 43 84 84" fill="none" stroke="#fff" stroke-width="28" stroke-linecap="round"/>
    <path d="M302 190c20 7 36 23 43 43" fill="none" stroke="#fff" stroke-width="24" stroke-linecap="round" opacity=".84"/>
  </g>
</svg>
