<svg xmlns="http://www.w3.org/2000/svg" viewBox="0 0 512 512" role="img" aria-label="Мой звонок">
  <rect width="512" height="512" rx="112" fill="#0d0d12"/>
  <circle cx="256" cy="256" r="184" fill="#1f7a5c" opacity=".18"/>
  <circle cx="256" cy="256" r="136" fill="#2dd4bf" opacity=".16"/>
  <path fill="#f8fafc" d="M348.5 317.8c-11.4-3.8-37.8-18.6-47.3-22.4-9.5-3.8-16.4-5.7-23.3 5.7-6.9 11.4-26.8 22.4-32.8 22.4-6.1 0-35.2-13.4-62.1-40.3-26.9-26.9-40.3-56-40.3-62.1 0-6.1 11-25.9 22.4-32.8 11.4-6.9 9.5-13.8 5.7-23.3-3.8-9.5-18.6-35.9-22.4-47.3-3.8-11.4-7.6-9.9-13.8-10.1h-11.8c-6.1 0-16 2.3-24.4 11.4-8.4 9.1-32 31.3-32 76.2 0 44.9 32.8 88.3 37.3 94.4 4.6 6.1 64.5 98.4 156.4 138 21.9 9.5 39 15.1 52.3 19.3 22 7 42 6 57.9 3.6 17.7-2.7 54.5-22.3 62.1-43.9 7.6-21.6 7.6-40.1 5.3-43.9-2.3-3.8-8.4-6.1-19.8-9.9Z"/>
  <path fill="#2dd4bf" d="M315 119c33.5 13.6 60.8 39 76.8 71.6 16 32.5 19.6 69.6 10.2 104.6-2.2 8.2-10.6 13.1-18.8 10.9-8.2-2.2-13.1-10.6-10.9-18.8 7.4-27.7 4.6-57-8.1-82.7-12.6-25.8-34.2-45.9-60.7-56.6-7.9-3.2-11.7-12.1-8.5-20 3.2-7.9 12.1-11.7 20-8.5Z"/>
  <path fill="#6ee7b7" d="M299.2 177.5c17.9 8.1 32.1 22.5 40 40.5 7.8 18 8.8 38.2 2.8 56.9-2.6 8.1-11.3 12.5-19.4 9.9-8.1-2.6-12.5-11.3-9.9-19.4 3.6-11.3 3-23.6-1.7-34.5-4.7-10.9-13.4-19.6-24.2-24.5-7.7-3.5-11.2-12.6-7.7-20.3 3.5-7.7 12.6-11.2 20.3-7.7Z"/>
</svg>
